<svg xmlns="http://www.w3.org/2000/svg" viewBox="0 0 486.392 486.392"><path d="M430.15 135.248C416.864 39.125 321.075-9.818 218.872 1.642 138.07 10.702 57.512 76.03 54.168 169.447c-2.037 57.03 14.136 99.8 68.4 111.84 23.498-41.586-7.57-50.676-12.434-80.802C90.222 77.367 252.16-6.718 336.974 79.313c58.733 59.583 20.034 242.77-74.57 223.71-90.62-18.18 44.384-164.005-27.936-192.61-58.793-23.287-90.013 71.134-62.137 118.07-16.353 80.712-51.555 156.71-37.3 257.91 46.21-33.56 61.804-97.734 74.57-164.704 23.227 14.134 35.66 28.756 65.27 31.036 109.195 8.48 170.267-109.014 155.28-217.48z" fill="#fff"/></svg>