<svg xmlns="http://www.w3.org/2000/svg" width="252.281" height="31.656" viewBox="0 0 252.281 31.656"><defs><style>.cls-1{fill:#fff;fill-rule:evenodd}</style></defs><path id="Galaxia" class="cls-1" d="M25.027 24.67a1.028 1.028 0 0 0-.28-.72.952.952 0 0 0-1.392 0 1.03 1.03 0 0 0-.278.72v2.886q-.6.374-1.184.676a9.794 9.794 0 0 1-1.23.535 13.02 13.02 0 0 1-2.832.745 15.8 15.8 0 0 1-2.042.14 13.308 13.308 0 0 1-5.388-1.096 13.867 13.867 0 0 1-7.313-7.333 13.858 13.858 0 0 1 0-10.78A13.8 13.8 0 0 1 10.4 3.086a13.324 13.324 0 0 1 5.386-1.095 13.358 13.358 0 0 1 7.66 2.33 1.017 1.017 0 0 0 .744.163.9.9 0 0 0 .6-.443 1.065 1.065 0 0 0 .162-.768.954.954 0 0 0-.395-.63A15.53 15.53 0 0 0 15.78-.01a15.1 15.1 0 0 0-6.15 1.256 16.5 16.5 0 0 0-5.016 3.4A15.694 15.694 0 0 0 0 15.824a15.454 15.454 0 0 0 1.23 6.17 15.962 15.962 0 0 0 8.4 8.428 15.334 15.334 0 0 0 6.157 1.234q.6 0 1.184-.047t1.14-.14a13.91 13.91 0 0 0 3.25-.838 14.645 14.645 0 0 0 3.25-1.677.78.78 0 0 0 .417-.838V24.67zm-4.643-7.356a1.02 1.02 0 0 0-.72.28.958.958 0 0 0 0 1.4 1.02 1.02 0 0 0 .72.28h3.668a.978.978 0 1 0 0-1.956h-3.668zm47.082 12.942L54.28.596a.8.8 0 0 0-.372-.44 1.1 1.1 0 0 0-.557-.164.954.954 0 0 0-.928.6L44.342 18.8l-5.107 11.456a.844.844 0 0 0-.023.745 1.1 1.1 0 0 0 .534.56.82.82 0 0 0 .37.093 1.014 1.014 0 0 0 .93-.605l4.83-10.9h8.264a1.026 1.026 0 0 0 .72-.28.912.912 0 0 0 .3-.7 1.033 1.033 0 0 0-1.02-1.012h-7.383l6.593-14.76 12.3 27.66a.954.954 0 0 0 .93.604 1.472 1.472 0 0 0 .42-.097 1 1 0 0 0 .51-.56.9.9 0 0 0-.045-.744zm14-10.337a.914.914 0 0 0 .3-.7V.97a.938.938 0 0 0-.3-.675.98.98 0 0 0-.72-.3 1.038 1.038 0 0 0-.975.978v18.253a.912.912 0 0 0 .3.7.967.967 0 0 0 .674.28 1.025 1.025 0 0 0 .72-.284zm4.34 9.736a4.05 4.05 0 0 1-4.04-4.05 1.033 1.033 0 0 0-1.022-1.026.93.93 0 0 0-.673.3.985.985 0 0 0-.3.722 5.95 5.95 0 0 0 .465 2.35 6.1 6.1 0 0 0 3.227 3.237 5.9 5.9 0 0 0 2.345.465H97.6a1.04 1.04 0 0 0 .975-.978.99.99 0 0 0-.3-.722.934.934 0 0 0-.675-.3H85.806zm55.347.605L127.967.6a.8.8 0 0 0-.372-.443 1.1 1.1 0 0 0-.557-.163.955.955 0 0 0-.93.6L118.03 18.8l-5.108 11.456a.845.845 0 0 0-.023.745 1.1 1.1 0 0 0 .533.56.825.825 0 0 0 .372.093 1.013 1.013 0 0 0 .928-.605l4.83-10.9h8.264a1.026 1.026 0 0 0 .72-.28.912.912 0 0 0 .3-.7 1.033 1.033 0 0 0-1.022-1.025h-7.382l6.593-14.76 12.3 27.66a.953.953 0 0 0 .928.604 1.473 1.473 0 0 0 .418-.093 1 1 0 0 0 .51-.56.9.9 0 0 0-.046-.744zm25.77-14.434l10.82-14.25a1 1 0 0 0 .184-.72 1.032 1.032 0 0 0-.37-.676 1.165 1.165 0 0 0-.767-.186.863.863 0 0 0-.627.373l-10.494 13.83L155.27.412a.845.845 0 0 0-.65-.42 1.043 1.043 0 0 0-.744.187.893.893 0 0 0-.394.676 1.087 1.087 0 0 0 .21.72l22.38 29.663a1.043 1.043 0 0 0 1.392.185.888.888 0 0 0 .372-.652 1.053 1.053 0 0 0-.186-.745zm-13.28 14.25a1.17 1.17 0 0 0-.186.767.833.833 0 0 0 .418.63.866.866 0 0 0 .558.185 1.1 1.1 0 0 0 .835-.42l7.29-10.104a1.168 1.168 0 0 0 .186-.768.872.872 0 0 0-.37-.63 1.173 1.173 0 0 0-.768-.185.832.832 0 0 0-.626.42zm54.14-28.08a.907.907 0 0 0 .7-.3 1.03 1.03 0 0 0 .278-.722.972.972 0 0 0-.277-.675.908.908 0 0 0-.7-.3H193.76a1.04 1.04 0 0 0-.974.977.985.985 0 0 0 .3.722.928.928 0 0 0 .673.3h14.02zm-6.036 27.66v-22.3a.975.975 0 1 0-1.95 0v22.3h-6.872a.932.932 0 0 0-.673.3.987.987 0 0 0-.3.722 1.04 1.04 0 0 0 .975.978h15.694a.9.9 0 0 0 .7-.3.973.973 0 0 0 .28-.675 1.035 1.035 0 0 0-.28-.72.91.91 0 0 0-.7-.3h-6.87zm50.426.605L238.986.6a.8.8 0 0 0-.37-.443 1.1 1.1 0 0 0-.56-.163.953.953 0 0 0-.927.6L229.05 18.8l-5.108 11.456a.845.845 0 0 0-.023.745 1.1 1.1 0 0 0 .533.56.818.818 0 0 0 .37.093 1.015 1.015 0 0 0 .93-.605l4.83-10.9h8.264a1.024 1.024 0 0 0 .72-.28.912.912 0 0 0 .3-.7 1.033 1.033 0 0 0-1.022-1.025h-7.383l6.593-14.76 12.305 27.66a.955.955 0 0 0 .93.604 1.48 1.48 0 0 0 .417-.093 1 1 0 0 0 .51-.56.9.9 0 0 0-.046-.744z"/></svg>