<svg width="0" height="0" style="position:absolute">
<defs>
<svg viewBox="-33.5 36 13 8" id="i-arrow-down">
<path class="ast0" d="M-33.9 36.5c0-.1 0-.2.1-.3.2-.2.4-.2.6 0l6.2 6.6 6.2-6.6c.2-.2.4-.2.6 0 .2.2.2.5 0 .7l-6.5 7c-.2.2-.4.2-.6 0l-6.5-7c-.1-.1-.1-.3-.1-.4z"/>
</svg>
<svg preserveAspectRatio="xMidYMid" viewBox="0 0 15 10" id="i-chevron-up">
<defs>
<style>.bcls-1{fill:#e3e4e7;fill-rule:evenodd}</style>
</defs>
<path d="M7.493-.002l7.492 10.015H.001L7.493-.002z" class="bcls-1"/>
</svg>
<svg id="i-close-filters" viewBox="-26 27 17 17">
<style>
.cst0{fill:none;stroke:#0069c8;stroke-miterlimit:10}
</style>
<path id="cXMLID_2_" class="cst0" d="M-26 27l16 16"/>
<path id="cXMLID_1_" class="cst0" d="M-10 27l-16 16"/>
</svg>
<svg viewBox="-19 21 30 30" id="i-close-popin">
<path class="dst0" d="M10 22.4L8.6 21-4.6 34.3-17.9 21l-1.1 1.4 13 13-13 13.2 1.1 1.4 13.3-13.3L8.6 50l1.4-1.4-13.3-13.2z"/>
</svg>
<svg id="i-close-popin-small" viewBox="0 0 14 14">
<style>.est0{fill:#fff}</style>
<g id="eXMLID_19_">
<g id="eXMLID_14_">
<path id="eXMLID_15_" class="est0" d="M14 .7l-.7-.7L7 6.4.5 0 0 .7 6.3 7 0 13.3l.5.7L7 7.6l6.3 6.4.7-.7L7.6 7z"/>
</g>
</g>
</svg>
<svg viewBox="-34.1 36.2 18.1 19.6" id="i-download">
<path class="fst0" d="M-16.5 55.8h-16.9c-.3 0-.6-.3-.6-.6v-3.7c0-.3.3-.6.6-.6s.6.3.6.6v3.1h15.7v-3.1c0-.3.3-.6.6-.6s.6.3.6.6v3.7c0 .3-.3.6-.6.6zm-8.1-3.9c-.1.1-.2.1-.2.1h-.4s-.1 0-.1-.1h-.1l-4.8-4.7c-.2-.2-.2-.6 0-.9.2-.2.6-.2.9 0l3.8 3.7V36.8c0-.3.3-.6.6-.6s.6.3.6.6V50l3.8-3.7c.2-.2.6-.2.9 0 .2.2.2.6 0 .9l-5 4.7z"/>
</svg>
<svg viewBox="-38 36 20 20" id="i-facebook">
<path d="M-23 39.5h-3.1c-.4 0-.8.5-.8 1.2V43h3.9v3.3h-3.9V56h-3.7v-9.8H-34v-3.3h3.4V41c0-2.8 1.9-5 4.5-5h3.1v3.5"/>
</svg>
<svg id="i-fullscreen" viewBox="-36.5 33.5 13 13">
<style>.hst0{fill:#fff}</style>
<g id="hXMLID_2_">
<path id="hXMLID_11_" class="hst0" d="M-34.9 35.1h3.3v-1.6h-4.9v4.9h1.6z"/>
<path id="hXMLID_12_" class="hst0" d="M-25.1 35.1v3.3h1.6v-4.9h-4.9v1.6z"/>
<path id="hXMLID_13_" class="hst0" d="M-25.1 44.9h-3.3v1.6h4.9v-4.9h-1.6z"/>
<path id="hXMLID_14_" class="hst0" d="M-34.9 44.9v-3.3h-1.6v4.9h4.9v-1.6z"/>
</g>
</svg>
<svg id="i-header" viewBox="-929 902 140 197">
<style>
.ist0{fill:#fff}.ist1{fill:url(#iSVGID_header)}.ist2{display:none;fill:none;stroke:#fff;stroke-miterlimit:10}
</style>
<path class="ist0" d="M-852 971v-51h1v51h-1zm-7-69h1v111h-1V902zm-7 18h1v51h-1v-51z"/>
<linearGradient id="iSVGID_header" gradientUnits="userSpaceOnUse" x1="-859" y1="1023.667" x2="-859" y2="942.664" gradientTransform="matrix(1 0 0 -1 0 2002)">
<stop offset="0" stop-color="#fff"/>
<stop offset="1" stop-color="#fff" stop-opacity="0"/>
</linearGradient>
<path class="ist1" d="M-859 1097c-38.6 0-70-31.4-70-70s31.4-70 70-70 70 31.4 70 70-31.5 70-70 70zm0-139c-38 0-69 31-69 69s31 69 69 69 69-31 69-69-31-69-69-69z"/>
<path class="ist2" d="M-858.3 902v111"/>
</svg>
<svg viewBox="-24 26 20 20" id="i-instagram">
<path d="M-8.8 36c0 3.3-2.6 6-5.7 6-3.2 0-5.7-2.7-5.7-6 0-.4 0-.8.1-1.2H-24v8c0 1.7 1.3 3.1 3 3.1h13c1.6 0 3-1.4 3-3.1v-8h-3.9c.1.4.1.8.1 1.2m.8-10h-13c-1.6 0-3 1.4-3 3.1v3.4h4.8c1-1.5 2.8-2.6 4.7-2.6 1.9 0 3.7 1 4.7 2.6H-5v-3.4c0-1.7-1.3-3.1-3-3.1zm1.5 3.9c0 .3-.2.6-.5.6h-1.6c-.3 0-.5-.3-.5-.6v-1.7c0-.3.2-.6.5-.6H-7c.3 0 .5.2.5.6v1.7zM-11 36c0-2.1-1.6-3.7-3.5-3.7-2 0-3.5 1.7-3.5 3.7 0 2.1 1.6 3.7 3.5 3.7 2 0 3.5-1.6 3.5-3.7z"/>
</svg>
<svg viewBox="0 0 20 20" id="i-linkedin">
<path class="kst0" d="M4.4 2.9c0 1.1-.8 2-2 2s-2-.9-2-2 .8-2 2-2c1.3 0 2 .9 2 2M.5 6.4h3.8V19H.5V6.4zM6.7 10.4c0-1.6-.1-2.9-.1-4.1h3.7l.2 1.8h.1c.6-.8 1.9-2.1 4.2-2.1 2.8 0 4.9 1.7 4.9 5.5V19h-4.2v-7c0-1.6-.6-2.8-2.1-2.8-1.2 0-1.9.8-2.2 1.5-.1.3-.1.6-.1 1V19H6.7v-8.6"/>
</svg>
<svg id="i-logo" viewBox="65.3 -5.2 114 53">
<style>.lst0{fill:#fff}</style>
<g id="lXMLID_23_">
<g id="lXMLID_48_">
<circle id="lXMLID_18_" class="lst0" cx="140.8" cy="-.3" r="2.5"/>
<path id="lXMLID_17_" class="lst0" d="M155 .8c-.9-1.9-4.3-2.8-9.8-2.5.1.3.2.5.2.9 3.5.2 5.8 1.1 6.1 2.4.5 2.1-3.9 5.5-12.1 9-.7-8.9-8.1-15.8-17.3-15.8-8.8 0-15.9 6.6-17.1 15.1-10.6 5.6-17.1 11.3-15.5 14.8 1.2 2.6 7.6 3.5 17.8 1.3-.1-.2-.3-.4-.4-.7-8.1 1.2-13.4.3-13.9-1.4-.7-2.1 4.1-5.7 12.7-9.3 2.6-1.2 11.9-5 22.8-7.8.2 0 .2.2.1.2-10.1 4.7-17 9.7-18.2 13.4-1.5 4.9 4.9 8.9 11.9 8.9 8.1 0 15.1-5.8 16.7-13.4 10.9-5.7 17.6-11.4 16-15.1z"/>
</g>
<g id="lXMLID_24_">
<path id="lXMLID_45_" class="lst0" d="M70.5 36c-1.9 0-3 .4-4.2 1l.7 2c1-.4 1.9-.7 3.2-.7 1.8 0 2.7.9 2.7 2.4v.2c-.9-.3-1.8-.4-3.1-.4-2.5 0-4.5 1.1-4.5 3.7 0 2.3 1.9 3.5 4 3.5 1.7 0 2.8-.7 3.6-1.6v1.4h2.6v-6.7c-.1-3.1-1.7-4.8-5-4.8zm2.4 7.2c0 1.4-1.2 2.4-2.9 2.4-1 0-2.1-.4-2.1-1.7 0-1.2 1-1.8 2.6-1.8 1 0 1.9.2 2.6.4l-.2.7z"/>
<path id="lXMLID_42_" class="lst0" d="M95.1 36c-1.9 0-3 .4-4.2 1l.7 2c1-.4 1.9-.7 3.2-.7 1.8 0 2.7.9 2.7 2.4v.2c-.9-.3-1.8-.4-3.1-.4-2.5 0-4.5 1.1-4.5 3.7 0 2.3 1.9 3.5 4 3.5 1.7 0 2.8-.7 3.6-1.6v1.4h2.6v-6.7c-.2-3.1-1.8-4.8-5-4.8zm2.4 7.2c0 1.4-1.2 2.4-2.9 2.4-1 0-2.1-.4-2.1-1.7 0-1.2 1-1.8 2.6-1.8 1 0 1.9.2 2.6.4l-.2.7z"/>
<path id="lXMLID_39_" class="lst0" d="M113.7 41.7c0-3.2 2.2-5.8 5.5-5.8 3.5 0 5.3 2.8 5.3 6v.7h-8.2c.3 1.9 1.6 2.8 3.2 2.8 1.2 0 2.1-.4 3-1.3l1.5 1.3c-1.1 1.2-2.5 2.1-4.6 2.1-3.3.1-5.7-2.3-5.7-5.8zm8.2-.8c-.2-1.7-1.2-2.9-2.8-2.9-1.6 0-2.7 1.2-2.9 2.9h5.7z"/>
<path id="lXMLID_37_" class="lst0" d="M85.5 36.2h2.6v11.2h-2.6V36.2z"/>
<path id="lXMLID_35_" class="lst0" d="M102.1 36.2h2.6V38c.7-1.1 1.8-1.9 3.5-1.9 2.5 0 4 1.7 4 4.3v7.1h-2.6V41c0-1.8-.9-2.7-2.4-2.7s-2.5 1.1-2.5 2.7v6.3h-2.6V36.2z"/>
<path id="lXMLID_8_" class="lst0" d="M80.1 38.6v-2.5h-2.6v11.2h2.6v-4.2c0-2.7 1.4-4.5 4-4.4V36c-2-.2-3.3 1-4 2.6z"/>
<path id="lXMLID_7_" class="lst0" d="M131.5 41.3v1.2h3.4v2.7c-.7.6-1.9 1.1-3.2 1.1-2.7 0-4.4-2-4.4-4.7 0-2.5 1.8-4.6 4.2-4.6 1.6 0 2.6.5 3.5 1.3l.8-1c-1.2-1-2.3-1.5-4.2-1.5-3.4 0-5.7 2.7-5.7 5.8 0 3.2 2.2 5.8 5.8 5.8 1.9 0 3.5-.8 4.5-1.8v-4.5h-4.7z"/>
<path id="lXMLID_30_" class="lst0" d="M150.5 35.9c-3.3 0-5.8 2.6-5.8 5.8 0 3.3 2.5 5.8 5.8 5.8s5.8-2.6 5.8-5.8-2.6-5.8-5.8-5.8zm0 10.4c-2.5 0-4.4-2-4.4-4.7s1.9-4.6 4.3-4.6c2.5 0 4.4 2 4.4 4.7.1 2.6-1.8 4.6-4.3 4.6z"/>
<path id="lXMLID_4_" class="lst0" d="M166.5 42.6c0 2.2-1.6 3.8-3.7 3.8s-3.4-1.3-3.4-3.6v-6.6h-1.2V43c0 2.8 1.8 4.6 4.5 4.6 1.7 0 3-.7 3.9-2v1.8h1.2V36.2h-1.2l-.1 6.4z"/>
<path id="lXMLID_26_" class="lst0" d="M174.8 36.2h-4.2v11.2h1.2v-3.9h2.7c2.4 0 4.4-1.2 4.4-3.7.1-2.3-1.6-3.6-4.1-3.6zm-.1 6.1h-2.8v-5h2.8c1.9 0 3 .9 3 2.5 0 1.5-1.2 2.5-3 2.5z"/>
<path id="lXMLID_1_" class="lst0" d="M144.6 36c-1.2 0-3.4.5-4.7 2.9v-2.7h-1.2v11.2h1.2v-4.6c0-4.1 2.7-5.5 4.7-5.5V36z"/>
</g>
</g>
</svg>
<svg viewBox="0 0 38 38" id="i-magnifier">
<defs>
<style>.mcls-1{fill:#fff;fill-rule:evenodd}</style>
</defs>
<path id="mShape_5_copie_2" data-name="Shape 5 copie 2" class="mcls-1" d="M1106.85 1279.67a13.828 13.828 0 1 1 9.78-4.05 13.734 13.734 0 0 1-9.78 4.05zm0-25.3a11.472 11.472 0 1 0 8.1 3.36 11.433 11.433 0 0 0-8.1-3.36zm11.6 24.34a1.171 1.171 0 0 1-.84-.34l-2.49-2.49a1.188 1.188 0 0 1 1.68-1.68l2.48 2.49a1.177 1.177 0 0 1 0 1.68 1.165 1.165 0 0 1-.83.34zm8.75 11.29a1.2 1.2 0 0 1-.84-.35l-9.8-9.8a1.181 1.181 0 0 1-.35-.84 1.148 1.148 0 0 1 .35-.84l2.62-2.62a1.177 1.177 0 0 1 1.68 0l9.8 9.8a1.206 1.206 0 0 1 .35.84 1.188 1.188 0 0 1-.35.84l-2.62 2.62a1.2 1.2 0 0 1-.84.35zm-8.13-10.99l8.13 8.12.94-.94-8.12-8.12z" transform="translate(-1093 -1252)"/>
</svg>
<svg id="i-menu" viewBox="-4 46 8 48">
<style>.nst0{fill:#fff}</style>
<g id="nXMLID_17_">
<path id="nXMLID_18_" class="nst0" d="M-.2 52.6l-2.7-4v6.2h-.8v-7.6h.9l2.6 4.1 2.6-4.1h.9v7.6h-.9v-6.2l-2.6 4z"/>
</g>
<g id="nXMLID_14_">
<path id="nXMLID_15_" class="nst0" d="M3.2 60.4h-6.1V63h4.1v.8h-4.1v2.6h6.1v.8h-6.9v-7.6h6.9v.8z"/>
</g>
<g id="nXMLID_11_">
<path id="nXMLID_12_" class="nst0" d="M2.4 72h.8v7.6h-.7l-5.4-6.2v6.2h-.8V72h.8l5.3 6.1V72z"/>
</g>
<g id="nXMLID_5_">
<path id="nXMLID_9_" class="nst0" d="M3.3 88.8c0 2.4-1.7 3.3-3.5 3.3s-3.4-1-3.4-3.3v-4.4h.8v4.3c0 1.6 1.3 2.4 2.6 2.4s2.6-.8 2.6-2.4v-4.3h.9v4.4z"/>
</g>
</svg>
<svg id="i-menu-burger" viewBox="-6.9 63.1 13.8 13.8">
<style>.ost0{fill:none;stroke:#fff;stroke-miterlimit:10}</style>
<path class="ost0" d="M-6.9 64H6.9M-6.9 68H6.9M-6.9 72H6.9M-6.9 76H6.9"/>
</svg>
<svg viewBox="-34.5 35.5 21 21" id="i-more">
<path d="M-24 35.5v21"/>
<path class="pst0" d="M-34.5 46h21"/>
</svg>
<svg id="i-play" viewBox="-67.5 8.5 93 93">
<style>
.qst0,.qst1,.qst2{fill:none;stroke:url(#qSVGID_1_);stroke-width:2}.qst1,.qst2{stroke:url(#qSVGID_2_)}.qst2{stroke:url(#qSVGID_3_)}
</style>
<radialGradient id="qSVGID_1_" cx="-20.657" cy="55.003" r="16.78" gradientUnits="userSpaceOnUse">
<stop offset="0" stop-color="#fff"/>
<stop offset="1" stop-color="#fff"/>
</radialGradient>
<path class="qst0" d="M-33 45.8v-8.4L-9 55l-24 17.7v-2.5"/>
<linearGradient id="qSVGID_2_" gradientUnits="userSpaceOnUse" x1="-32.985" y1="65.806" x2="-32.985" y2="45.803">
<stop offset="0" stop-color="#fff" stop-opacity="0"/>
<stop offset="1" stop-color="#fff"/>
</linearGradient>
<path class="qst1" d="M-33 65.8v-20"/>
<radialGradient id="qSVGID_3_" cx="-20.771" cy="55.088" r="46.084" gradientTransform="translate(-.267 .015) scale(.9981)" gradientUnits="userSpaceOnUse">
<stop offset="0" stop-color="#fff"/>
<stop offset="1" stop-color="#fff"/>
</radialGradient>
<circle class="qst2" cx="-21" cy="55" r="45"/>
</svg>
<svg viewBox="-58.9 69 63.7 49.5" id="i-quote">
<path d="M-29.5 69l1.1 2.7C-41 79.4-48.8 88.9-49.7 98c3.2-2.8 6.8-5.1 10.4-5.1 3.6 0 5.6 2.8 5.6 7 0 8.6-8.2 18.6-16.4 18.6-6.2 0-8.8-4.6-8.8-11.7 0-13.9 11.1-28.8 29.4-37.8zm33.2 0l1.1 2.8C-7.8 79.4-15.6 88.9-16.5 98c3.2-2.8 6.8-5.1 10.4-5.1s5.6 2.8 5.6 7c0 8.6-8.2 18.6-16.4 18.6-6.2 0-8.8-4.6-8.8-11.7C-25.7 92.9-14.6 78 3.7 69z"/>
</svg>
<svg id="i-search" viewBox="-34.5 35.5 19 19">
<style>.sst0{fill:#fcfcfc;enable-background:new}</style>
<path class="sst0" d="M-15.7 53l-1.3 1.3c-.1.1-.3.2-.4.2-.2 0-.3-.1-.4-.2l-4.9-4.9c-.1-.1-.2-.3-.2-.4 0-.2.1-.3.2-.4l.2-.2-.7-.7c-1.2 1-2.8 1.6-4.4 1.6-1.8 0-3.6-.7-4.9-2-1.3-1.3-2-3-2-4.9 0-1.8.7-3.6 2-4.9 1.3-1.3 3-2 4.9-2s3.6.7 4.9 2c1.3 1.3 2 3 2 4.9 0 1.7-.6 3.2-1.7 4.5l.7.7.3-.3c.2-.2.6-.2.8 0l4.9 4.9c.1.1.2.3.2.4 0 .2-.1.3-.2.4zm-6.2-10.6c0-1.5-.6-3-1.7-4.1-1.1-1.1-2.5-1.7-4.1-1.7-1.5 0-3 .6-4.1 1.7-1.1 1.1-1.7 2.5-1.7 4.1 0 1.5.6 3 1.7 4.1 1.1 1.1 2.5 1.7 4.1 1.7 1.5 0 3-.6 4.1-1.7 1.2-1.1 1.7-2.6 1.7-4.1zm.9 6.1l-.5.5 4.1 4.1.5-.5-4.1-4.1z"/>
</svg>
<svg id="i-sound" viewBox="-36.5 33.5 13 13">
<style>.tst0{fill:#fff}</style>
<path class="tst0" d="M-25.5 46v-9h2v9h-2zm0-12h2v2h-2v-2zm-4 4h2v8h-2v-8zm-4 1h2v7h-2v-7zm-3 4.8h2.2V46h-2.2v-2.2z"/>
</svg>
<svg id="i-time" viewBox="0 0 14 14">
<style>.ust0{fill:#fff}</style>
<path id="uXMLID_31_" class="ust0" d="M7 13.5C3.4 13.5.5 10.6.5 7S3.4.5 7 .5s6.5 2.9 6.5 6.5-2.9 6.5-6.5 6.5zM7 1.3C3.9 1.3 1.3 3.9 1.3 7s2.6 5.7 5.7 5.7 5.7-2.6 5.7-5.7S10.1 1.3 7 1.3zm2.5 8.6c-.1 0-.2 0-.3-.1L6.7 7.3c-.1-.1-.1-.2-.1-.3V2.4c0-.2.2-.4.4-.4s.4.2.4.4v4.4l2.4 2.4c.2.2.2.4 0 .6-.1.1-.2.1-.3.1z"/>
</svg>
<svg viewBox="-24 26 20 20" id="i-twitter">
<path class="vst0" d="M-4 29.9c-.7.3-1.5.5-2.4.6.8-.5 1.5-1.3 1.8-2.2-.8.5-1.7.8-2.6 1-.7-.8-1.8-1.3-3-1.3-2.3 0-4.1 1.8-4.1 4 0 .3 0 .6.1.9-3.4-.2-6.4-1.8-8.5-4.2-.4.6-.6 1.3-.6 2 0 1.4.7 2.6 1.8 3.4-.7 0-1.3-.2-1.9-.5 0 2 1.4 3.6 3.3 4-.3.1-.7.1-1.1.1-.3 0-.5 0-.8-.1.5 1.6 2 2.8 3.8 2.8-1.4 1.1-3.2 1.7-5.1 1.7-.3 0-.7 0-1-.1 1.8 1.1 4 1.8 6.3 1.8 7.8.2 12-6 12-11.3V32c.8-.6 1.4-1.3 2-2.1"/>
</svg>
</defs>
</svg>