<?xml version="1.0" standalone="no"?>
<!DOCTYPE svg PUBLIC "-//W3C//DTD SVG 20010904//EN"
 "http://www.w3.org/TR/2001/REC-SVG-20010904/DTD/svg10.dtd">
<svg version="1.0" xmlns="http://www.w3.org/2000/svg"
 width="512.000000pt" height="512.000000pt" viewBox="0 0 512.000000 512.000000"
 preserveAspectRatio="xMidYMid meet">
<metadata>
Created by potrace 1.11, written by Peter Selinger 2001-2013
</metadata>
<g transform="translate(0.000000,512.000000) scale(0.100000,-0.100000)"
fill="#000000" stroke="none">
<path d="M2426 3670 c-248 -28 -478 -140 -657 -319 -169 -169 -262 -349 -313
-611 -4 -20 -31 -40 -138 -99 -167 -92 -350 -209 -476 -302 -122 -91 -318
-287 -354 -354 -61 -114 -57 -201 12 -267 127 -120 507 -142 973 -56 64 12
117 24 117 27 0 3 -4 12 -9 20 -7 11 -24 11 -102 0 -58 -9 -185 -14 -329 -14
-243 0 -309 9 -395 52 -87 44 -99 102 -40 189 128 186 675 465 1430 729 329
115 780 250 813 243 10 -2 -77 -52 -193 -111 -529 -268 -847 -507 -950 -714
-41 -82 -42 -183 -3 -266 63 -135 235 -251 453 -307 574 -147 1159 176 1334
737 l26 83 153 85 c534 297 840 565 886 777 4 15 1 48 -5 73 -21 85 -123 147
-287 175 -66 12 -328 17 -338 7 -3 -3 -3 -15 1 -26 5 -17 15 -21 45 -21 59 0
182 -26 239 -51 176 -75 141 -210 -99 -381 -135 -96 -550 -312 -567 -295 -3 3
-11 42 -19 85 -69 397 -339 718 -719 855 -144 51 -337 74 -489 57z"/>
</g>
</svg>
